<?xml version="1.0" encoding="UTF-8" standalone="no"?>
<!-- Created with Inkscape (http://www.inkscape.org/) -->

<svg
   xmlns:dc="http://purl.org/dc/elements/1.1/"
   xmlns:cc="http://creativecommons.org/ns#"
   xmlns:rdf="http://www.w3.org/1999/02/22-rdf-syntax-ns#"
   xmlns:svg="http://www.w3.org/2000/svg"
   xmlns="http://www.w3.org/2000/svg"
   xmlns:sodipodi="http://sodipodi.sourceforge.net/DTD/sodipodi-0.dtd"
   xmlns:inkscape="http://www.inkscape.org/namespaces/inkscape"
   width="48px"
   height="48px"
   id="svg3567"
   version="1.1"
   inkscape:version="0.48.3.1 r9886"
   sodipodi:docname="New document 35">
  <title
     id="title3631">CattyScan Icon</title>
  <defs
     id="defs3569" />
  <sodipodi:namedview
     id="base"
     pagecolor="#ffffff"
     bordercolor="#666666"
     borderopacity="1.0"
     inkscape:pageopacity="0.0"
     inkscape:pageshadow="2"
     inkscape:zoom="7"
     inkscape:cx="26.364843"
     inkscape:cy="5.8455549"
     inkscape:current-layer="layer1"
     showgrid="true"
     inkscape:grid-bbox="true"
     inkscape:document-units="px"
     inkscape:window-width="1293"
     inkscape:window-height="967"
     inkscape:window-x="362"
     inkscape:window-y="87"
     inkscape:window-maximized="0" />
  <metadata
     id="metadata3572">
    <rdf:RDF>
      <cc:Work
         rdf:about="">
        <dc:format>image/svg+xml</dc:format>
        <dc:type
           rdf:resource="http://purl.org/dc/dcmitype/StillImage" />
        <dc:title>CattyScan Icon</dc:title>
        <dc:date>2012-08-27</dc:date>
        <dc:creator>
          <cc:Agent>
            <dc:title>Alexander von Gluck IV</dc:title>
          </cc:Agent>
        </dc:creator>
        <dc:rights>
          <cc:Agent>
            <dc:title>All rights reserved</dc:title>
          </cc:Agent>
        </dc:rights>
        <cc:license
           rdf:resource="http://creativecommons.org/licenses/by-nc-nd/3.0/" />
      </cc:Work>
      <cc:License
         rdf:about="http://creativecommons.org/licenses/by-nc-nd/3.0/">
        <cc:permits
           rdf:resource="http://creativecommons.org/ns#Reproduction" />
        <cc:permits
           rdf:resource="http://creativecommons.org/ns#Distribution" />
        <cc:requires
           rdf:resource="http://creativecommons.org/ns#Notice" />
        <cc:requires
           rdf:resource="http://creativecommons.org/ns#Attribution" />
        <cc:prohibits
           rdf:resource="http://creativecommons.org/ns#CommercialUse" />
      </cc:License>
    </rdf:RDF>
  </metadata>
  <g
     id="layer1"
     inkscape:label="Layer 1"
     inkscape:groupmode="layer">
    <path
       inkscape:connector-curvature="0"
       id="path3398-3"
       d="M 6.5403363,41.416433 C 4.6445701,39.791713 3.5320422,38.012114 4.0680514,37.461773 4.6040606,36.911429 3.695869,36.4501 2.0498498,36.436598 -0.26022377,36.417644 -0.45204827,36.092824 1.2089311,35.012643 2.3924483,34.242969 2.9112023,32.86635 2.3617179,31.95349 1.8122336,31.04063 1.8268174,24.093692 2.3941173,16.51585 L 3.4255863,2.737957 7.458413,5.4510304 c 5.841885,3.9301135 25.847465,4.0734277 32.357276,0.2318018 l 4.845435,-2.8594326 1.02827,13.7351734 c 0.565549,7.554343 0.578693,14.482057 0.02922,15.394917 -0.549483,0.91286 -0.03073,2.289479 1.152786,3.059153 1.66098,1.080181 1.469155,1.405007 -0.840917,1.423955 -1.646021,0.01346 -2.548161,0.481045 -2.004754,1.038982 0.543405,0.557938 -0.67995,2.361536 -2.718569,4.007999 -5.337292,4.310588 -29.713703,4.263508 -34.7668201,-0.06714 z M 28.994225,39.219439 c 0.552556,-0.917966 0.236005,-1.16983 -0.713232,-0.567482 -0.938703,0.595665 -2.347877,-0.09328 -3.131498,-1.530975 -1.310253,-2.403904 -1.505327,-2.398448 -2.427101,0.0679 -0.569686,1.524279 -1.785215,2.18511 -2.816064,1.530975 -1.049076,-0.665704 -1.394875,-0.455083 -0.820225,0.499585 0.546424,0.907778 2.775752,1.650508 4.95406,1.650508 2.178307,0 4.407634,-0.74273 4.95406,-1.650508 z M 16.232952,29.268706 c 0,-3.536911 -4.854364,-5.298248 -7.3996795,-2.684866 -2.6244023,2.694585 -0.035804,6.953392 3.8794535,6.382553 2.303401,-0.335832 3.520226,-1.614001 3.520226,-3.697687 z m 23.421637,0 c 0,-3.536911 -4.854365,-5.298248 -7.399679,-2.684866 -2.624402,2.694585 -0.0358,6.953392 3.879453,6.382553 2.3034,-0.335832 3.520226,-1.614001 3.520226,-3.697687 z"
       style="fill:#00ff00" />
    <path
       inkscape:connector-curvature="0"
       id="path3400"
       d="M 7.2293319,40.803469 C 5.4005708,39.276996 4.3273648,37.60501 4.8444287,37.087946 5.3614925,36.570882 4.485401,36.13745 2.8975592,36.124765 0.66913482,36.10696 0.48408955,35.801778 2.0863631,34.786915 3.2280494,34.063784 3.7284676,32.770409 3.1984048,31.91275 2.668342,31.05509 2.6824104,24.528234 3.2296596,17.408622 L 4.2246714,4.4638769 8.1149595,7.012891 c 5.6354055,3.69246 24.9338975,3.827108 31.2136225,0.2177848 l 4.674176,-2.6865231 0.991926,12.9046093 c 0.54556,7.097533 0.558239,13.606328 0.02819,14.463988 -0.530062,0.857659 -0.02965,2.151034 1.112042,2.874165 1.602273,1.014863 1.417228,1.320047 -0.811196,1.33785 -1.587842,0.01265 -2.458097,0.451956 -1.933897,0.976155 0.524199,0.524199 -0.655918,2.218734 -2.622482,3.765635 -5.148648,4.049926 -28.663486,4.005694 -33.5380027,-0.06308 z"
       style="fill:#ffffff" />
    <path
       inkscape:connector-curvature="0"
       id="path3398"
       d="M 7.2293319,40.803469 C 5.4005708,39.276996 4.3273648,37.60501 4.8444287,37.087946 5.3614925,36.570882 4.485401,36.13745 2.8975592,36.124765 0.66913482,36.10696 0.48408955,35.801778 2.0863631,34.786915 3.2280494,34.063784 3.7284676,32.770409 3.1984048,31.91275 2.668342,31.05509 2.6824104,24.528234 3.2296596,17.408622 L 4.2246714,4.4638769 8.1149595,7.012891 c 5.6354055,3.69246 24.9338975,3.827108 31.2136225,0.2177848 l 4.674176,-2.6865231 0.991926,12.9046093 c 0.54556,7.097533 0.558239,13.606328 0.02819,14.463988 -0.530062,0.857659 -0.02965,2.151034 1.112042,2.874165 1.602273,1.014863 1.417228,1.320047 -0.811196,1.33785 -1.587842,0.01265 -2.458097,0.451956 -1.933897,0.976155 0.524199,0.524199 -0.655918,2.218734 -2.622482,3.765635 -5.148648,4.049926 -28.663486,4.005694 -33.5380027,-0.06308 z M 28.889598,38.739327 c 0.533027,-0.862456 0.227664,-1.09909 -0.688023,-0.533166 -0.905525,0.559645 -2.264892,-0.08764 -3.020818,-1.438396 -1.263943,-2.258541 -1.452122,-2.253415 -2.341316,0.06379 -0.549551,1.432105 -1.722117,2.052976 -2.716531,1.438397 -1.011997,-0.625449 -1.345574,-0.427564 -0.791235,0.469375 0.527112,0.852885 2.677645,1.550701 4.778961,1.550701 2.101316,0 4.25185,-0.697816 4.778962,-1.550701 z M 16.579366,29.390314 c 0,-3.323033 -4.68279,-4.977863 -7.1381408,-2.522512 -2.531644,2.531644 -0.034538,6.53292 3.7423358,5.9966 2.221987,-0.315524 3.395805,-1.516402 3.395805,-3.474088 z m 22.59381,0 c 0,-3.323033 -4.682789,-4.977863 -7.138141,-2.522512 -2.531644,2.531644 -0.03454,6.53292 3.742336,5.9966 2.221988,-0.315524 3.395805,-1.516402 3.395805,-3.474088 z"
       style="fill:#008000" />
    <path
       inkscape:connector-curvature="0"
       id="path3396"
       d="M 12.060179,41.67062 C 9.9789899,40.976889 8.6593318,39.78937 9.1276051,39.031688 9.5958799,38.274005 9.0917412,37.643704 8.0073,37.631018 6.5745678,37.614259 6.6532033,37.20882 8.2949689,36.14783 10.256143,34.880421 10.227711,34.68466 8.079558,34.664641 5.2483398,34.638251 2.9070863,30.134922 5.7062982,30.099748 7.1337661,30.081809 7.1295215,29.81477 5.6872139,28.898581 4.3585472,28.054585 4.099943,24.857367 4.7753353,17.624742 5.736235,7.3346991 6.3655885,6.2021177 9.423468,9.259998 c 2.402144,2.402143 25.733109,2.570936 28.834965,0.2086115 1.331551,-1.0140893 2.83135,-1.8653553 3.332882,-1.8917035 0.501535,-0.026341 1.336118,4.495179 1.854634,10.047836 0.675392,7.232625 0.416788,10.429843 -0.911879,11.273839 -1.442313,0.916189 -1.446557,1.183231 -0.01908,1.201167 2.799213,0.03517 0.457958,4.538506 -2.373259,4.564893 -2.148165,0.02002 -2.176598,0.21578 -0.215424,1.483189 1.641766,1.06099 1.720402,1.466429 0.28767,1.483188 -1.084441,0.01265 -1.582961,0.65208 -1.107819,1.420875 1.981041,3.20539 -19.148406,5.25125 -27.045975,2.618727 z m 16.829419,-2.931293 c 0.533027,-0.862456 0.227664,-1.09909 -0.688023,-0.533166 -0.905525,0.559645 -2.264892,-0.08764 -3.020818,-1.438396 -1.263943,-2.258541 -1.452122,-2.253415 -2.341316,0.06379 -0.549551,1.432105 -1.722117,2.052976 -2.716531,1.438397 -1.011997,-0.625449 -1.345574,-0.427564 -0.791235,0.469375 0.527112,0.852885 2.677645,1.550701 4.778961,1.550701 2.101316,0 4.25185,-0.697816 4.778962,-1.550701 z M 16.579366,29.390314 c 0,-3.323033 -4.68279,-4.977863 -7.1381408,-2.522512 -2.531644,2.531644 -0.034538,6.53292 3.7423358,5.9966 2.221987,-0.315524 3.395805,-1.516402 3.395805,-3.474088 z m 22.59381,0 c 0,-3.323033 -4.682789,-4.977863 -7.138141,-2.522512 -2.531644,2.531644 -0.03454,6.53292 3.742336,5.9966 2.221988,-0.315524 3.395805,-1.516402 3.395805,-3.474088 z"
       style="fill:#000000" />
  </g>
</svg>
